<svg xmlns="http://www.w3.org/2000/svg" xmlns:xlink="http://www.w3.org/1999/xlink" width="40" zoomAndPan="magnify" viewBox="0 0 30 30.000001" height="40" preserveAspectRatio="xMidYMid meet" version="1.0"><defs><clipPath id="c3fad62175"><path d="M 0.484375 0 L 13 0 L 13 13 L 0.484375 13 Z M 0.484375 0 " clip-rule="nonzero"/></clipPath><clipPath id="0792509624"><path d="M 17 16 L 29.515625 16 L 29.515625 29 L 17 29 Z M 17 16 " clip-rule="nonzero"/></clipPath><clipPath id="57d3281d23"><path d="M 0.484375 16 L 13 16 L 13 29 L 0.484375 29 Z M 0.484375 16 " clip-rule="nonzero"/></clipPath><clipPath id="ded97b1150"><path d="M 17 0 L 29.515625 0 L 29.515625 13 L 17 13 Z M 17 0 " clip-rule="nonzero"/></clipPath><clipPath id="892336bcc0"><path d="M 0.484375 9 L 7 9 L 7 12 L 0.484375 12 Z M 0.484375 9 " clip-rule="nonzero"/></clipPath><clipPath id="8c5329165b"><path d="M 0.484375 17 L 6 17 L 6 20 L 0.484375 20 Z M 0.484375 17 " clip-rule="nonzero"/></clipPath><clipPath id="eeea7a08da"><path d="M 23 17 L 29.515625 17 L 29.515625 20 L 23 20 Z M 23 17 " clip-rule="nonzero"/></clipPath><clipPath id="b6cf15ce96"><path d="M 23 9 L 29.515625 9 L 29.515625 12 L 23 12 Z M 23 9 " clip-rule="nonzero"/></clipPath><clipPath id="c65697358f"><path d="M 0.484375 0 L 29.515625 0 L 29.515625 29 L 0.484375 29 Z M 0.484375 0 " clip-rule="nonzero"/></clipPath></defs><g clip-path="url(#c3fad62175)"><path fill="#ffffff" d="M 12.476562 0.292969 C 12.027344 0.375 11.582031 0.472656 11.144531 0.59375 L 11.144531 9.691406 L 3.746094 5.429688 C 3.402344 5.855469 3.078125 6.300781 2.777344 6.769531 C 2.660156 6.957031 2.550781 7.144531 2.441406 7.332031 L 10.492188 11.96875 L 8.007812 11.96875 L 1.871094 8.433594 C 1.742188 8.703125 1.625 8.976562 1.519531 9.25 L 6.238281 11.96875 L 0.746094 11.96875 C 0.695312 12.257812 0.648438 12.550781 0.617188 12.84375 L 12.476562 12.84375 L 12.476562 0.292969 " fill-opacity="1" fill-rule="nonzero"/></g><g clip-path="url(#0792509624)"><path fill="#ffffff" d="M 17.527344 28.726562 C 17.972656 28.648438 18.417969 28.550781 18.855469 28.429688 L 18.855469 19.4375 L 26.195312 23.664062 C 26.558594 23.21875 26.90625 22.75 27.222656 22.25 C 27.324219 22.09375 27.417969 21.929688 27.511719 21.769531 L 19.328125 17.054688 L 21.8125 17.054688 L 28.089844 20.671875 C 28.21875 20.402344 28.339844 20.128906 28.449219 19.855469 L 23.585938 17.054688 L 29.253906 17.054688 C 29.304688 16.765625 29.351562 16.472656 29.386719 16.179688 L 17.527344 16.179688 L 17.527344 28.726562 " fill-opacity="1" fill-rule="nonzero"/></g><g clip-path="url(#57d3281d23)"><path fill="#ffffff" d="M 0.621094 16.179688 C 0.65625 16.472656 0.699219 16.765625 0.75 17.054688 L 5.882812 17.054688 L 1.453125 19.609375 C 1.722656 20.324219 2.054688 21.023438 2.4375 21.691406 L 10.492188 17.054688 L 11.144531 17.054688 L 11.144531 18.109375 L 3.097656 22.742188 C 3.269531 22.984375 3.449219 23.222656 3.632812 23.453125 L 11.144531 19.128906 L 11.144531 28.429688 C 11.585938 28.554688 12.03125 28.652344 12.476562 28.730469 L 12.476562 16.179688 L 0.621094 16.179688 " fill-opacity="1" fill-rule="nonzero"/></g><g clip-path="url(#ded97b1150)"><path fill="#ffffff" d="M 29.378906 12.84375 C 29.34375 12.550781 29.300781 12.257812 29.25 11.96875 L 23.941406 11.96875 L 28.515625 9.332031 C 28.238281 8.617188 27.90625 7.921875 27.515625 7.253906 L 19.332031 11.96875 L 18.855469 11.96875 L 18.855469 10.8125 L 26.847656 6.210938 C 26.679688 5.96875 26.496094 5.730469 26.3125 5.5 L 18.855469 9.792969 L 18.855469 0.589844 C 18.414062 0.46875 17.972656 0.371094 17.527344 0.292969 L 17.527344 12.84375 L 29.378906 12.84375 " fill-opacity="1" fill-rule="nonzero"/></g><g clip-path="url(#892336bcc0)"><path fill="#202149" d="M 1.519531 9.25 C 1.167969 10.136719 0.910156 11.046875 0.746094 11.96875 L 6.238281 11.96875 L 1.519531 9.25 " fill-opacity="1" fill-rule="nonzero"/></g><g clip-path="url(#8c5329165b)"><path fill="#202149" d="M 0.75 17.054688 C 0.90625 17.925781 1.140625 18.78125 1.453125 19.609375 L 5.882812 17.054688 L 0.75 17.054688 " fill-opacity="1" fill-rule="nonzero"/></g><path fill="#202149" d="M 3.632812 23.453125 C 4.617188 24.699219 5.820312 25.804688 7.238281 26.699219 C 8.480469 27.488281 9.796875 28.058594 11.144531 28.429688 L 11.144531 19.128906 L 3.632812 23.453125 " fill-opacity="1" fill-rule="nonzero"/><path fill="#202149" d="M 18.855469 28.429688 C 21.667969 27.65625 24.25 26.03125 26.195312 23.664062 L 18.855469 19.4375 L 18.855469 28.429688 " fill-opacity="1" fill-rule="nonzero"/><path fill="#202149" d="M 26.3125 5.5 C 25.335938 4.285156 24.152344 3.203125 22.761719 2.324219 C 21.519531 1.535156 20.203125 0.964844 18.855469 0.589844 L 18.855469 9.792969 L 26.3125 5.5 " fill-opacity="1" fill-rule="nonzero"/><path fill="#202149" d="M 11.144531 0.59375 C 8.304688 1.375 5.695312 3.019531 3.746094 5.429688 L 11.144531 9.691406 L 11.144531 0.59375 " fill-opacity="1" fill-rule="nonzero"/><g clip-path="url(#eeea7a08da)"><path fill="#202149" d="M 28.449219 19.855469 C 28.816406 18.941406 29.082031 18.003906 29.253906 17.054688 L 23.585938 17.054688 L 28.449219 19.855469 " fill-opacity="1" fill-rule="nonzero"/></g><g clip-path="url(#b6cf15ce96)"><path fill="#202149" d="M 29.25 11.96875 C 29.089844 11.070312 28.84375 10.1875 28.515625 9.332031 L 23.941406 11.96875 L 29.25 11.96875 " fill-opacity="1" fill-rule="nonzero"/></g><path fill="#e52c33" d="M 19.328125 17.054688 L 27.511719 21.769531 C 27.722656 21.40625 27.914062 21.042969 28.089844 20.671875 L 21.8125 17.054688 L 19.328125 17.054688 " fill-opacity="1" fill-rule="nonzero"/><path fill="#e52c33" d="M 18.855469 11.96875 L 19.332031 11.96875 L 27.515625 7.253906 C 27.308594 6.898438 27.085938 6.550781 26.847656 6.210938 L 18.855469 10.8125 L 18.855469 11.96875 " fill-opacity="1" fill-rule="nonzero"/><path fill="#e52c33" d="M 10.492188 11.96875 L 2.441406 7.332031 C 2.234375 7.691406 2.042969 8.058594 1.871094 8.433594 L 8.007812 11.96875 L 10.492188 11.96875 " fill-opacity="1" fill-rule="nonzero"/><path fill="#e52c33" d="M 11.144531 17.054688 L 10.492188 17.054688 L 2.4375 21.691406 C 2.644531 22.050781 2.863281 22.402344 3.097656 22.742188 L 11.144531 18.109375 L 11.144531 17.054688 " fill-opacity="1" fill-rule="nonzero"/><g clip-path="url(#c65697358f)"><path fill="#e52c33" d="M 29.378906 12.84375 L 17.527344 12.84375 L 17.527344 0.292969 C 15.84375 -0.00390625 14.132812 0 12.476562 0.292969 L 12.476562 12.84375 L 0.617188 12.84375 C 0.488281 13.957031 0.492188 15.078125 0.621094 16.179688 L 12.476562 16.179688 L 12.476562 28.730469 C 14.160156 29.027344 15.867188 29.023438 17.527344 28.726562 L 17.527344 16.179688 L 29.386719 16.179688 C 29.511719 15.066406 29.507812 13.945312 29.378906 12.84375 " fill-opacity="1" fill-rule="nonzero"/></g></svg>