<svg id="katman_1" data-name="katman 1" xmlns="http://www.w3.org/2000/svg" viewBox="0 0 250 250"><defs><style>.cls-1{fill:#262626;}</style></defs><polygon class="cls-1" points="98.98 123.98 34.33 230 68.33 230 199.3 15.22 208.58 0 250 0 250 250 108.27 250 179.65 132.92 198.11 102.65 198.11 200.91 179.65 200.91 179.65 169.2 142.57 230 231.54 230 231.54 15.22 221.42 15.22 90.05 230.65 78.25 250 0 250 12.2 230 19.3 218.36 77.05 123.66 19.3 28.96 10.92 15.22 1.63 0 79.01 0 86.38 12.07 115.74 60.22 152.46 0 174.58 0 126.8 78.35 126.72 78.47 115.62 96.68 108.69 84.94 66.17 15.22 33.04 15.22 88.11 105.52 99.17 123.66 98.98 123.98"/></svg>