<svg id="katman_1" data-name="katman 1" xmlns="http://www.w3.org/2000/svg" viewBox="0 0 250 250"><defs><style>.cls-1{fill:#262626;}</style></defs><path class="cls-1" d="M97.82,124,35.93,225.48A3,3,0,0,0,38.46,230H65.51A3,3,0,0,0,68,228.58L198.14,15.22l8.42-13.8A3,3,0,0,1,209.09,0h36.78a3,3,0,0,1,3,3V247a3,3,0,0,1-3,3H112.4a3,3,0,0,1-2.54-4.52L178.5,132.92l12.94-21.23a3,3,0,0,1,5.51,1.54v84.71a3,3,0,0,1-3,3H181.47a3,3,0,0,1-3-3V179.78a3,3,0,0,0-5.51-1.55l-28.82,47.25a3,3,0,0,0,2.54,4.52h80.7a3,3,0,0,0,3-3V18.19a3,3,0,0,0-3-3h-5.48a3,3,0,0,0-2.54,1.42l-130.5,214L78,248.58A3,3,0,0,1,75.42,250H4.14a3,3,0,0,1-2.54-4.52L11,230l7.1-11.64,56.8-93.15a3,3,0,0,0,0-3.1L18.14,29,9.76,15.22,3.23,4.52A3,3,0,0,1,5.77,0H76.18a3,3,0,0,1,2.54,1.42l6.5,10.65,26.82,44a3,3,0,0,0,5.08,0L150.43,1.42A3,3,0,0,1,153,0h15.16a3,3,0,0,1,2.53,4.52l-45,73.83-.08.12-8.52,14a3,3,0,0,1-5.1,0l-4.41-7.47L65.89,16.64a3,3,0,0,0-2.54-1.42H37.17a3,3,0,0,0-2.54,4.52L87,105.52,98,123.66Z"/></svg>