<svg xmlns="http://www.w3.org/2000/svg" xmlns:xlink="http://www.w3.org/1999/xlink" width="40" zoomAndPan="magnify" viewBox="0 0 30 30.000001" height="40" preserveAspectRatio="xMidYMid meet" version="1.0"><defs><clipPath id="273dfd70d9"><path d="M 0.484375 0 L 29.515625 0 L 29.515625 29.03125 L 0.484375 29.03125 Z M 0.484375 0 " clip-rule="nonzero"/></clipPath></defs><g clip-path="url(#273dfd70d9)"><path fill="#ee2332" d="M 25.265625 4.25 C 24.417969 3.40625 23.484375 2.675781 22.484375 2.070312 C 22.285156 1.953125 21.835938 1.722656 21.421875 1.515625 L 21.421875 1.492188 C 21.167969 1.367188 20.914062 1.25 20.660156 1.140625 C 20.65625 1.140625 20.65625 1.140625 20.65625 1.140625 C 18.890625 0.394531 16.976562 0 15 0 C 13.023438 0 11.109375 0.394531 9.34375 1.140625 C 8.613281 1.449219 7.914062 1.816406 7.242188 2.242188 C 6.34375 2.808594 5.503906 3.484375 4.734375 4.25 C 1.992188 6.992188 0.484375 10.640625 0.484375 14.515625 C 0.484375 18.394531 1.992188 22.039062 4.734375 24.78125 C 5.503906 25.550781 6.34375 26.222656 7.242188 26.792969 C 7.914062 27.21875 8.613281 27.582031 9.34375 27.890625 C 11.109375 28.640625 13.023438 29.035156 15 29.035156 C 17.265625 29.035156 19.449219 28.515625 21.421875 27.542969 L 21.421875 27.515625 C 21.835938 27.308594 22.285156 27.082031 22.484375 26.960938 C 23.484375 26.359375 24.417969 25.628906 25.265625 24.78125 C 28.007812 22.039062 29.515625 18.394531 29.515625 14.515625 C 29.515625 10.640625 28.007812 6.992188 25.265625 4.25 " fill-opacity="1" fill-rule="nonzero"/></g><path fill="#ffffff" d="M 8.871094 15.40625 C 8.144531 11.632812 12.558594 5.445312 19.351562 9.933594 C 12.027344 2.167969 5.242188 9.785156 5.242188 14.480469 C 5.242188 21.164062 14.089844 26.011719 19.472656 18.613281 C 15.425781 22.738281 9.75 19.945312 8.871094 15.40625 " fill-opacity="1" fill-rule="nonzero"/><path fill="#ffffff" d="M 23.636719 12.648438 L 21.898438 10.839844 L 21.519531 13.320312 L 19.261719 14.410156 L 21.503906 15.539062 L 21.84375 18.023438 L 23.609375 16.242188 L 26.078125 16.683594 L 24.929688 14.453125 L 26.113281 12.242188 L 23.636719 12.648438 " fill-opacity="1" fill-rule="nonzero"/></svg>